# xmcd
#
# Track frame offsets:
#	150
#	11367
#	29557
#	58397
#	80739
#	93396
#	106472
#	118444
#	134191
#	154216
#	161869
#	176419
#	193210
#	203513
#
# Disc length: 2928 seconds
#
# Revision: 1
# Processed by: cddbd v1.5.2PL0 Copyright (c) Steve Scherf et al.
# Submitted via: audiograbber 1.83.01
#
DISCID=d10b6e0e
DTITLE=Various Artist - Golden Pop Hits 6
DYEAR=2007
DGENRE=Oldies
TTITLE0=Little Eva - The Loco-Motion
TTITLE1=Martino, Al - Spanish Eyes
TTITLE2=New Eagles, The - Hotel California
TTITLE3=Osibisa - Sunshine Day
TTITLE4=Bassey, Shirley - Goldfinger
TTITLE5=Herman's Hermits - No Milk Today
TTITLE6=Andrews, Chris - Pretty Belinda
TTITLE7=James, Tommy and The Shondelles - Crimson And Clover
TTITLE8=White, Barry - Under The Influence Of Love
TTITLE9=Paul, Les Trio - How High The Moon
TTITLE10=Ocean, Billy - Love Really Hurts Without You
TTITLE11=Bay City Rollers - Summer Love Sensation
TTITLE12=Jan and Dean - Ride The Wild Surf
TTITLE13=Righteous Brothers, The - Unchained Melody
EXTD=
EXTT0=
EXTT1=
EXTT2=
EXTT3=
EXTT4=
EXTT5=
EXTT6=
EXTT7=
EXTT8=
EXTT9=
EXTT10=
EXTT11=
EXTT12=
EXTT13=
PLAYORDER=
